<?xml version="1.0" encoding="utf-8" standalone="no"?>
<!DOCTYPE svg PUBLIC "-//W3C//DTD SVG 1.1//EN"
  "http://www.w3.org/Graphics/SVG/1.1/DTD/svg11.dtd">
<svg xmlns:xlink="http://www.w3.org/1999/xlink" width="720pt" height="288pt" viewBox="0 0 720 288" xmlns="http://www.w3.org/2000/svg" version="1.1">
 <metadata>
  <rdf:RDF xmlns:dc="http://purl.org/dc/elements/1.1/" xmlns:cc="http://creativecommons.org/ns#" xmlns:rdf="http://www.w3.org/1999/02/22-rdf-syntax-ns#">
   <cc:Work>
    <dc:type rdf:resource="http://purl.org/dc/dcmitype/StillImage"/>
    <dc:date>2026-07-19T15:19:40.796100</dc:date>
    <dc:format>image/svg+xml</dc:format>
    <dc:creator>
     <cc:Agent>
      <dc:title>Matplotlib v3.10.8, https://matplotlib.org/</dc:title>
     </cc:Agent>
    </dc:creator>
   </cc:Work>
  </rdf:RDF>
 </metadata>
 <defs>
  <style type="text/css">*{stroke-linejoin: round; stroke-linecap: butt}</style>
 </defs>
 <g id="figure_1">
  <g id="patch_1">
   <path d="M 0 288 
L 720 288 
L 720 0 
L 0 0 
z
" style="fill: #ffffff"/>
  </g>
  <g id="axes_1">
   <g id="patch_2">
    <path d="M 47.81 246.04 
L 709.2 246.04 
L 709.2 10.8 
L 47.81 10.8 
z
" style="fill: #ffffff"/>
   </g>
   <g id="matplotlib.axis_1">
    <g id="xtick_1">
     <g id="line2d_1">
      <path d="M 77.873182 246.04 
L 77.873182 10.8 
" clip-path="url(#pe52a34a97b)" style="fill: none; stroke: #b0b0b0; stroke-opacity: 0.3; stroke-width: 0.8; stroke-linecap: square"/>
     </g>
     <g id="line2d_2">
      <defs>
       <path id="m66a9b88cf4" d="M 0 0 
L 0 3.5 
" style="stroke: #000000; stroke-width: 0.8"/>
      </defs>
      <g>
       <use xlink:href="#m66a9b88cf4" x="77.873182" y="246.04" style="stroke: #000000; stroke-width: 0.8"/>
      </g>
     </g>
     <g id="text_1">
      <!-- 0 -->
      <g transform="translate(74.691932 260.638438) scale(0.1 -0.1)">
       <defs>
        <path id="DejaVuSans-30" d="M 2034 4250 
Q 1547 4250 1301 3770 
Q 1056 3291 1056 2328 
Q 1056 1369 1301 889 
Q 1547 409 2034 409 
Q 2525 409 2770 889 
Q 3016 1369 3016 2328 
Q 3016 3291 2770 3770 
Q 2525 4250 2034 4250 
z
M 2034 4750 
Q 2819 4750 3233 4129 
Q 3647 3509 3647 2328 
Q 3647 1150 3233 529 
Q 2819 -91 2034 -91 
Q 1250 -91 836 529 
Q 422 1150 422 2328 
Q 422 3509 836 4129 
Q 1250 4750 2034 4750 
z
" transform="scale(0.015625)"/>
       </defs>
       <use xlink:href="#DejaVuSans-30"/>
      </g>
     </g>
    </g>
    <g id="xtick_2">
     <g id="line2d_3">
      <path d="M 199.340583 246.04 
L 199.340583 10.8 
" clip-path="url(#pe52a34a97b)" style="fill: none; stroke: #b0b0b0; stroke-opacity: 0.3; stroke-width: 0.8; stroke-linecap: square"/>
     </g>
     <g id="line2d_4">
      <g>
       <use xlink:href="#m66a9b88cf4" x="199.340583" y="246.04" style="stroke: #000000; stroke-width: 0.8"/>
      </g>
     </g>
     <g id="text_2">
      <!-- 2000 -->
      <g transform="translate(186.615583 260.638438) scale(0.1 -0.1)">
       <defs>
        <path id="DejaVuSans-32" d="M 1228 531 
L 3431 531 
L 3431 0 
L 469 0 
L 469 531 
Q 828 903 1448 1529 
Q 2069 2156 2228 2338 
Q 2531 2678 2651 2914 
Q 2772 3150 2772 3378 
Q 2772 3750 2511 3984 
Q 2250 4219 1831 4219 
Q 1534 4219 1204 4116 
Q 875 4013 500 3803 
L 500 4441 
Q 881 4594 1212 4672 
Q 1544 4750 1819 4750 
Q 2544 4750 2975 4387 
Q 3406 4025 3406 3419 
Q 3406 3131 3298 2873 
Q 3191 2616 2906 2266 
Q 2828 2175 2409 1742 
Q 1991 1309 1228 531 
z
" transform="scale(0.015625)"/>
       </defs>
       <use xlink:href="#DejaVuSans-32"/>
       <use xlink:href="#DejaVuSans-30" transform="translate(63.623047 0)"/>
       <use xlink:href="#DejaVuSans-30" transform="translate(127.246094 0)"/>
       <use xlink:href="#DejaVuSans-30" transform="translate(190.869141 0)"/>
      </g>
     </g>
    </g>
    <g id="xtick_3">
     <g id="line2d_5">
      <path d="M 320.807984 246.04 
L 320.807984 10.8 
" clip-path="url(#pe52a34a97b)" style="fill: none; stroke: #b0b0b0; stroke-opacity: 0.3; stroke-width: 0.8; stroke-linecap: square"/>
     </g>
     <g id="line2d_6">
      <g>
       <use xlink:href="#m66a9b88cf4" x="320.807984" y="246.04" style="stroke: #000000; stroke-width: 0.8"/>
      </g>
     </g>
     <g id="text_3">
      <!-- 4000 -->
      <g transform="translate(308.082984 260.638438) scale(0.1 -0.1)">
       <defs>
        <path id="DejaVuSans-34" d="M 2419 4116 
L 825 1625 
L 2419 1625 
L 2419 4116 
z
M 2253 4666 
L 3047 4666 
L 3047 1625 
L 3713 1625 
L 3713 1100 
L 3047 1100 
L 3047 0 
L 2419 0 
L 2419 1100 
L 313 1100 
L 313 1709 
L 2253 4666 
z
" transform="scale(0.015625)"/>
       </defs>
       <use xlink:href="#DejaVuSans-34"/>
       <use xlink:href="#DejaVuSans-30" transform="translate(63.623047 0)"/>
       <use xlink:href="#DejaVuSans-30" transform="translate(127.246094 0)"/>
       <use xlink:href="#DejaVuSans-30" transform="translate(190.869141 0)"/>
      </g>
     </g>
    </g>
    <g id="xtick_4">
     <g id="line2d_7">
      <path d="M 442.275386 246.04 
L 442.275386 10.8 
" clip-path="url(#pe52a34a97b)" style="fill: none; stroke: #b0b0b0; stroke-opacity: 0.3; stroke-width: 0.8; stroke-linecap: square"/>
     </g>
     <g id="line2d_8">
      <g>
       <use xlink:href="#m66a9b88cf4" x="442.275386" y="246.04" style="stroke: #000000; stroke-width: 0.8"/>
      </g>
     </g>
     <g id="text_4">
      <!-- 6000 -->
      <g transform="translate(429.550386 260.638438) scale(0.1 -0.1)">
       <defs>
        <path id="DejaVuSans-36" d="M 2113 2584 
Q 1688 2584 1439 2293 
Q 1191 2003 1191 1497 
Q 1191 994 1439 701 
Q 1688 409 2113 409 
Q 2538 409 2786 701 
Q 3034 994 3034 1497 
Q 3034 2003 2786 2293 
Q 2538 2584 2113 2584 
z
M 3366 4563 
L 3366 3988 
Q 3128 4100 2886 4159 
Q 2644 4219 2406 4219 
Q 1781 4219 1451 3797 
Q 1122 3375 1075 2522 
Q 1259 2794 1537 2939 
Q 1816 3084 2150 3084 
Q 2853 3084 3261 2657 
Q 3669 2231 3669 1497 
Q 3669 778 3244 343 
Q 2819 -91 2113 -91 
Q 1303 -91 875 529 
Q 447 1150 447 2328 
Q 447 3434 972 4092 
Q 1497 4750 2381 4750 
Q 2619 4750 2861 4703 
Q 3103 4656 3366 4563 
z
" transform="scale(0.015625)"/>
       </defs>
       <use xlink:href="#DejaVuSans-36"/>
       <use xlink:href="#DejaVuSans-30" transform="translate(63.623047 0)"/>
       <use xlink:href="#DejaVuSans-30" transform="translate(127.246094 0)"/>
       <use xlink:href="#DejaVuSans-30" transform="translate(190.869141 0)"/>
      </g>
     </g>
    </g>
    <g id="xtick_5">
     <g id="line2d_9">
      <path d="M 563.742787 246.04 
L 563.742787 10.8 
" clip-path="url(#pe52a34a97b)" style="fill: none; stroke: #b0b0b0; stroke-opacity: 0.3; stroke-width: 0.8; stroke-linecap: square"/>
     </g>
     <g id="line2d_10">
      <g>
       <use xlink:href="#m66a9b88cf4" x="563.742787" y="246.04" style="stroke: #000000; stroke-width: 0.8"/>
      </g>
     </g>
     <g id="text_5">
      <!-- 8000 -->
      <g transform="translate(551.017787 260.638438) scale(0.1 -0.1)">
       <defs>
        <path id="DejaVuSans-38" d="M 2034 2216 
Q 1584 2216 1326 1975 
Q 1069 1734 1069 1313 
Q 1069 891 1326 650 
Q 1584 409 2034 409 
Q 2484 409 2743 651 
Q 3003 894 3003 1313 
Q 3003 1734 2745 1975 
Q 2488 2216 2034 2216 
z
M 1403 2484 
Q 997 2584 770 2862 
Q 544 3141 544 3541 
Q 544 4100 942 4425 
Q 1341 4750 2034 4750 
Q 2731 4750 3128 4425 
Q 3525 4100 3525 3541 
Q 3525 3141 3298 2862 
Q 3072 2584 2669 2484 
Q 3125 2378 3379 2068 
Q 3634 1759 3634 1313 
Q 3634 634 3220 271 
Q 2806 -91 2034 -91 
Q 1263 -91 848 271 
Q 434 634 434 1313 
Q 434 1759 690 2068 
Q 947 2378 1403 2484 
z
M 1172 3481 
Q 1172 3119 1398 2916 
Q 1625 2713 2034 2713 
Q 2441 2713 2670 2916 
Q 2900 3119 2900 3481 
Q 2900 3844 2670 4047 
Q 2441 4250 2034 4250 
Q 1625 4250 1398 4047 
Q 1172 3844 1172 3481 
z
" transform="scale(0.015625)"/>
       </defs>
       <use xlink:href="#DejaVuSans-38"/>
       <use xlink:href="#DejaVuSans-30" transform="translate(63.623047 0)"/>
       <use xlink:href="#DejaVuSans-30" transform="translate(127.246094 0)"/>
       <use xlink:href="#DejaVuSans-30" transform="translate(190.869141 0)"/>
      </g>
     </g>
    </g>
    <g id="xtick_6">
     <g id="line2d_11">
      <path d="M 685.210188 246.04 
L 685.210188 10.8 
" clip-path="url(#pe52a34a97b)" style="fill: none; stroke: #b0b0b0; stroke-opacity: 0.3; stroke-width: 0.8; stroke-linecap: square"/>
     </g>
     <g id="line2d_12">
      <g>
       <use xlink:href="#m66a9b88cf4" x="685.210188" y="246.04" style="stroke: #000000; stroke-width: 0.8"/>
      </g>
     </g>
     <g id="text_6">
      <!-- 10000 -->
      <g transform="translate(669.303938 260.638438) scale(0.1 -0.1)">
       <defs>
        <path id="DejaVuSans-31" d="M 794 531 
L 1825 531 
L 1825 4091 
L 703 3866 
L 703 4441 
L 1819 4666 
L 2450 4666 
L 2450 531 
L 3481 531 
L 3481 0 
L 794 0 
L 794 531 
z
" transform="scale(0.015625)"/>
       </defs>
       <use xlink:href="#DejaVuSans-31"/>
       <use xlink:href="#DejaVuSans-30" transform="translate(63.623047 0)"/>
       <use xlink:href="#DejaVuSans-30" transform="translate(127.246094 0)"/>
       <use xlink:href="#DejaVuSans-30" transform="translate(190.869141 0)"/>
       <use xlink:href="#DejaVuSans-30" transform="translate(254.492188 0)"/>
      </g>
     </g>
    </g>
    <g id="text_7">
     <!-- Iteration -->
     <g transform="translate(357.296406 274.316562) scale(0.1 -0.1)">
      <defs>
       <path id="DejaVuSans-49" d="M 628 4666 
L 1259 4666 
L 1259 0 
L 628 0 
L 628 4666 
z
" transform="scale(0.015625)"/>
       <path id="DejaVuSans-74" d="M 1172 4494 
L 1172 3500 
L 2356 3500 
L 2356 3053 
L 1172 3053 
L 1172 1153 
Q 1172 725 1289 603 
Q 1406 481 1766 481 
L 2356 481 
L 2356 0 
L 1766 0 
Q 1100 0 847 248 
Q 594 497 594 1153 
L 594 3053 
L 172 3053 
L 172 3500 
L 594 3500 
L 594 4494 
L 1172 4494 
z
" transform="scale(0.015625)"/>
       <path id="DejaVuSans-65" d="M 3597 1894 
L 3597 1613 
L 953 1613 
Q 991 1019 1311 708 
Q 1631 397 2203 397 
Q 2534 397 2845 478 
Q 3156 559 3463 722 
L 3463 178 
Q 3153 47 2828 -22 
Q 2503 -91 2169 -91 
Q 1331 -91 842 396 
Q 353 884 353 1716 
Q 353 2575 817 3079 
Q 1281 3584 2069 3584 
Q 2775 3584 3186 3129 
Q 3597 2675 3597 1894 
z
M 3022 2063 
Q 3016 2534 2758 2815 
Q 2500 3097 2075 3097 
Q 1594 3097 1305 2825 
Q 1016 2553 972 2059 
L 3022 2063 
z
" transform="scale(0.015625)"/>
       <path id="DejaVuSans-72" d="M 2631 2963 
Q 2534 3019 2420 3045 
Q 2306 3072 2169 3072 
Q 1681 3072 1420 2755 
Q 1159 2438 1159 1844 
L 1159 0 
L 581 0 
L 581 3500 
L 1159 3500 
L 1159 2956 
Q 1341 3275 1631 3429 
Q 1922 3584 2338 3584 
Q 2397 3584 2469 3576 
Q 2541 3569 2628 3553 
L 2631 2963 
z
" transform="scale(0.015625)"/>
       <path id="DejaVuSans-61" d="M 2194 1759 
Q 1497 1759 1228 1600 
Q 959 1441 959 1056 
Q 959 750 1161 570 
Q 1363 391 1709 391 
Q 2188 391 2477 730 
Q 2766 1069 2766 1631 
L 2766 1759 
L 2194 1759 
z
M 3341 1997 
L 3341 0 
L 2766 0 
L 2766 531 
Q 2569 213 2275 61 
Q 1981 -91 1556 -91 
Q 1019 -91 701 211 
Q 384 513 384 1019 
Q 384 1609 779 1909 
Q 1175 2209 1959 2209 
L 2766 2209 
L 2766 2266 
Q 2766 2663 2505 2880 
Q 2244 3097 1772 3097 
Q 1472 3097 1187 3025 
Q 903 2953 641 2809 
L 641 3341 
Q 956 3463 1253 3523 
Q 1550 3584 1831 3584 
Q 2591 3584 2966 3190 
Q 3341 2797 3341 1997 
z
" transform="scale(0.015625)"/>
       <path id="DejaVuSans-69" d="M 603 3500 
L 1178 3500 
L 1178 0 
L 603 0 
L 603 3500 
z
M 603 4863 
L 1178 4863 
L 1178 4134 
L 603 4134 
L 603 4863 
z
" transform="scale(0.015625)"/>
       <path id="DejaVuSans-6f" d="M 1959 3097 
Q 1497 3097 1228 2736 
Q 959 2375 959 1747 
Q 959 1119 1226 758 
Q 1494 397 1959 397 
Q 2419 397 2687 759 
Q 2956 1122 2956 1747 
Q 2956 2369 2687 2733 
Q 2419 3097 1959 3097 
z
M 1959 3584 
Q 2709 3584 3137 3096 
Q 3566 2609 3566 1747 
Q 3566 888 3137 398 
Q 2709 -91 1959 -91 
Q 1206 -91 779 398 
Q 353 888 353 1747 
Q 353 2609 779 3096 
Q 1206 3584 1959 3584 
z
" transform="scale(0.015625)"/>
       <path id="DejaVuSans-6e" d="M 3513 2113 
L 3513 0 
L 2938 0 
L 2938 2094 
Q 2938 2591 2744 2837 
Q 2550 3084 2163 3084 
Q 1697 3084 1428 2787 
Q 1159 2491 1159 1978 
L 1159 0 
L 581 0 
L 581 3500 
L 1159 3500 
L 1159 2956 
Q 1366 3272 1645 3428 
Q 1925 3584 2291 3584 
Q 2894 3584 3203 3211 
Q 3513 2838 3513 2113 
z
" transform="scale(0.015625)"/>
      </defs>
      <use xlink:href="#DejaVuSans-49"/>
      <use xlink:href="#DejaVuSans-74" transform="translate(29.492188 0)"/>
      <use xlink:href="#DejaVuSans-65" transform="translate(68.701172 0)"/>
      <use xlink:href="#DejaVuSans-72" transform="translate(130.224609 0)"/>
      <use xlink:href="#DejaVuSans-61" transform="translate(171.337891 0)"/>
      <use xlink:href="#DejaVuSans-74" transform="translate(232.617188 0)"/>
      <use xlink:href="#DejaVuSans-69" transform="translate(271.826172 0)"/>
      <use xlink:href="#DejaVuSans-6f" transform="translate(299.609375 0)"/>
      <use xlink:href="#DejaVuSans-6e" transform="translate(360.791016 0)"/>
     </g>
    </g>
   </g>
   <g id="matplotlib.axis_2">
    <g id="ytick_1">
     <g id="line2d_13">
      <path d="M 47.81 236.513997 
L 709.2 236.513997 
" clip-path="url(#pe52a34a97b)" style="fill: none; stroke: #b0b0b0; stroke-opacity: 0.3; stroke-width: 0.8; stroke-linecap: square"/>
     </g>
     <g id="line2d_14">
      <defs>
       <path id="mf4365d3706" d="M 0 0 
L -3.5 0 
" style="stroke: #000000; stroke-width: 0.8"/>
      </defs>
      <g>
       <use xlink:href="#mf4365d3706" x="47.81" y="236.513997" style="stroke: #000000; stroke-width: 0.8"/>
      </g>
     </g>
     <g id="text_8">
      <!-- 0.0 -->
      <g transform="translate(24.906875 240.313216) scale(0.1 -0.1)">
       <defs>
        <path id="DejaVuSans-2e" d="M 684 794 
L 1344 794 
L 1344 0 
L 684 0 
L 684 794 
z
" transform="scale(0.015625)"/>
       </defs>
       <use xlink:href="#DejaVuSans-30"/>
       <use xlink:href="#DejaVuSans-2e" transform="translate(63.623047 0)"/>
       <use xlink:href="#DejaVuSans-30" transform="translate(95.410156 0)"/>
      </g>
     </g>
    </g>
    <g id="ytick_2">
     <g id="line2d_15">
      <path d="M 47.81 192.383773 
L 709.2 192.383773 
" clip-path="url(#pe52a34a97b)" style="fill: none; stroke: #b0b0b0; stroke-opacity: 0.3; stroke-width: 0.8; stroke-linecap: square"/>
     </g>
     <g id="line2d_16">
      <g>
       <use xlink:href="#mf4365d3706" x="47.81" y="192.383773" style="stroke: #000000; stroke-width: 0.8"/>
      </g>
     </g>
     <g id="text_9">
      <!-- 0.1 -->
      <g transform="translate(24.906875 196.182991) scale(0.1 -0.1)">
       <use xlink:href="#DejaVuSans-30"/>
       <use xlink:href="#DejaVuSans-2e" transform="translate(63.623047 0)"/>
       <use xlink:href="#DejaVuSans-31" transform="translate(95.410156 0)"/>
      </g>
     </g>
    </g>
    <g id="ytick_3">
     <g id="line2d_17">
      <path d="M 47.81 148.253548 
L 709.2 148.253548 
" clip-path="url(#pe52a34a97b)" style="fill: none; stroke: #b0b0b0; stroke-opacity: 0.3; stroke-width: 0.8; stroke-linecap: square"/>
     </g>
     <g id="line2d_18">
      <g>
       <use xlink:href="#mf4365d3706" x="47.81" y="148.253548" style="stroke: #000000; stroke-width: 0.8"/>
      </g>
     </g>
     <g id="text_10">
      <!-- 0.2 -->
      <g transform="translate(24.906875 152.052767) scale(0.1 -0.1)">
       <use xlink:href="#DejaVuSans-30"/>
       <use xlink:href="#DejaVuSans-2e" transform="translate(63.623047 0)"/>
       <use xlink:href="#DejaVuSans-32" transform="translate(95.410156 0)"/>
      </g>
     </g>
    </g>
    <g id="ytick_4">
     <g id="line2d_19">
      <path d="M 47.81 104.123324 
L 709.2 104.123324 
" clip-path="url(#pe52a34a97b)" style="fill: none; stroke: #b0b0b0; stroke-opacity: 0.3; stroke-width: 0.8; stroke-linecap: square"/>
     </g>
     <g id="line2d_20">
      <g>
       <use xlink:href="#mf4365d3706" x="47.81" y="104.123324" style="stroke: #000000; stroke-width: 0.8"/>
      </g>
     </g>
     <g id="text_11">
      <!-- 0.3 -->
      <g transform="translate(24.906875 107.922543) scale(0.1 -0.1)">
       <defs>
        <path id="DejaVuSans-33" d="M 2597 2516 
Q 3050 2419 3304 2112 
Q 3559 1806 3559 1356 
Q 3559 666 3084 287 
Q 2609 -91 1734 -91 
Q 1441 -91 1130 -33 
Q 819 25 488 141 
L 488 750 
Q 750 597 1062 519 
Q 1375 441 1716 441 
Q 2309 441 2620 675 
Q 2931 909 2931 1356 
Q 2931 1769 2642 2001 
Q 2353 2234 1838 2234 
L 1294 2234 
L 1294 2753 
L 1863 2753 
Q 2328 2753 2575 2939 
Q 2822 3125 2822 3475 
Q 2822 3834 2567 4026 
Q 2313 4219 1838 4219 
Q 1578 4219 1281 4162 
Q 984 4106 628 3988 
L 628 4550 
Q 988 4650 1302 4700 
Q 1616 4750 1894 4750 
Q 2613 4750 3031 4423 
Q 3450 4097 3450 3541 
Q 3450 3153 3228 2886 
Q 3006 2619 2597 2516 
z
" transform="scale(0.015625)"/>
       </defs>
       <use xlink:href="#DejaVuSans-30"/>
       <use xlink:href="#DejaVuSans-2e" transform="translate(63.623047 0)"/>
       <use xlink:href="#DejaVuSans-33" transform="translate(95.410156 0)"/>
      </g>
     </g>
    </g>
    <g id="ytick_5">
     <g id="line2d_21">
      <path d="M 47.81 59.9931 
L 709.2 59.9931 
" clip-path="url(#pe52a34a97b)" style="fill: none; stroke: #b0b0b0; stroke-opacity: 0.3; stroke-width: 0.8; stroke-linecap: square"/>
     </g>
     <g id="line2d_22">
      <g>
       <use xlink:href="#mf4365d3706" x="47.81" y="59.9931" style="stroke: #000000; stroke-width: 0.8"/>
      </g>
     </g>
     <g id="text_12">
      <!-- 0.4 -->
      <g transform="translate(24.906875 63.792318) scale(0.1 -0.1)">
       <use xlink:href="#DejaVuSans-30"/>
       <use xlink:href="#DejaVuSans-2e" transform="translate(63.623047 0)"/>
       <use xlink:href="#DejaVuSans-34" transform="translate(95.410156 0)"/>
      </g>
     </g>
    </g>
    <g id="ytick_6">
     <g id="line2d_23">
      <path d="M 47.81 15.862875 
L 709.2 15.862875 
" clip-path="url(#pe52a34a97b)" style="fill: none; stroke: #b0b0b0; stroke-opacity: 0.3; stroke-width: 0.8; stroke-linecap: square"/>
     </g>
     <g id="line2d_24">
      <g>
       <use xlink:href="#mf4365d3706" x="47.81" y="15.862875" style="stroke: #000000; stroke-width: 0.8"/>
      </g>
     </g>
     <g id="text_13">
      <!-- 0.5 -->
      <g transform="translate(24.906875 19.662094) scale(0.1 -0.1)">
       <defs>
        <path id="DejaVuSans-35" d="M 691 4666 
L 3169 4666 
L 3169 4134 
L 1269 4134 
L 1269 2991 
Q 1406 3038 1543 3061 
Q 1681 3084 1819 3084 
Q 2600 3084 3056 2656 
Q 3513 2228 3513 1497 
Q 3513 744 3044 326 
Q 2575 -91 1722 -91 
Q 1428 -91 1123 -41 
Q 819 9 494 109 
L 494 744 
Q 775 591 1075 516 
Q 1375 441 1709 441 
Q 2250 441 2565 725 
Q 2881 1009 2881 1497 
Q 2881 1984 2565 2268 
Q 2250 2553 1709 2553 
Q 1456 2553 1204 2497 
Q 953 2441 691 2322 
L 691 4666 
z
" transform="scale(0.015625)"/>
       </defs>
       <use xlink:href="#DejaVuSans-30"/>
       <use xlink:href="#DejaVuSans-2e" transform="translate(63.623047 0)"/>
       <use xlink:href="#DejaVuSans-35" transform="translate(95.410156 0)"/>
      </g>
     </g>
    </g>
    <g id="text_14">
     <!-- Loss -->
     <g transform="translate(18.827188 139.387188) rotate(-90) scale(0.1 -0.1)">
      <defs>
       <path id="DejaVuSans-4c" d="M 628 4666 
L 1259 4666 
L 1259 531 
L 3531 531 
L 3531 0 
L 628 0 
L 628 4666 
z
" transform="scale(0.015625)"/>
       <path id="DejaVuSans-73" d="M 2834 3397 
L 2834 2853 
Q 2591 2978 2328 3040 
Q 2066 3103 1784 3103 
Q 1356 3103 1142 2972 
Q 928 2841 928 2578 
Q 928 2378 1081 2264 
Q 1234 2150 1697 2047 
L 1894 2003 
Q 2506 1872 2764 1633 
Q 3022 1394 3022 966 
Q 3022 478 2636 193 
Q 2250 -91 1575 -91 
Q 1294 -91 989 -36 
Q 684 19 347 128 
L 347 722 
Q 666 556 975 473 
Q 1284 391 1588 391 
Q 1994 391 2212 530 
Q 2431 669 2431 922 
Q 2431 1156 2273 1281 
Q 2116 1406 1581 1522 
L 1381 1569 
Q 847 1681 609 1914 
Q 372 2147 372 2553 
Q 372 3047 722 3315 
Q 1072 3584 1716 3584 
Q 2034 3584 2315 3537 
Q 2597 3491 2834 3397 
z
" transform="scale(0.015625)"/>
      </defs>
      <use xlink:href="#DejaVuSans-4c"/>
      <use xlink:href="#DejaVuSans-6f" transform="translate(53.962891 0)"/>
      <use xlink:href="#DejaVuSans-73" transform="translate(115.144531 0)"/>
      <use xlink:href="#DejaVuSans-73" transform="translate(167.244141 0)"/>
     </g>
    </g>
   </g>
   <g id="line2d_25">
    <path d="M 77.873182 22.646577 
L 83.946552 26.390758 
L 90.019922 35.795936 
L 96.093292 51.433926 
L 102.166662 69.674624 
L 108.240032 84.217897 
L 114.313402 106.626768 
L 120.386772 130.725423 
L 126.460142 143.312667 
L 132.533512 144.595872 
L 138.606882 144.20983 
L 144.680253 139.492712 
L 150.753623 128.472788 
L 156.826993 118.357131 
L 162.900363 102.596848 
L 168.973733 90.683338 
L 175.047103 85.353119 
L 181.120473 64.518892 
L 187.193843 88.852277 
L 193.267213 87.037678 
L 199.340583 91.150258 
L 205.413953 94.898443 
L 211.487323 103.979515 
L 217.560693 115.712784 
L 223.634063 117.100735 
L 229.707433 114.490589 
L 235.780803 115.039046 
L 241.854174 118.100765 
L 247.927544 115.160448 
L 254.000914 119.491577 
L 260.074284 114.516314 
L 266.147654 114.050328 
L 272.221024 114.198941 
L 278.294394 114.4843 
L 284.367764 121.746798 
L 290.441134 121.530125 
L 296.514504 128.545682 
L 302.587874 126.023691 
L 308.661244 117.887365 
L 314.734614 111.632546 
L 320.807984 111.026396 
L 326.881354 107.851435 
L 332.954725 108.091609 
L 339.028095 114.936177 
L 345.101465 113.434661 
L 351.174835 115.055997 
L 357.248205 110.059886 
L 363.321575 114.454945 
L 369.394945 110.910083 
L 375.468315 111.027565 
L 381.541685 109.212946 
L 387.615055 109.197637 
L 393.688425 118.348946 
L 399.761795 117.368893 
L 405.835165 127.391813 
L 411.908535 122.856043 
L 417.981905 121.281932 
L 424.055275 118.868149 
L 430.128646 118.693472 
L 436.202016 121.211885 
L 442.275386 117.279299 
L 448.348756 115.341456 
L 454.422126 116.649947 
L 460.495496 115.687327 
L 466.568866 114.931463 
L 472.642236 99.212767 
L 478.715606 99.433853 
L 484.788976 102.978856 
L 490.862346 101.826869 
L 496.935716 98.902317 
L 503.009086 99.394123 
L 509.082456 98.261105 
L 515.155826 98.359516 
L 521.229197 56.909583 
L 527.302567 51.251978 
L 533.375937 52.72482 
L 539.449307 50.954155 
L 545.522677 47.445927 
L 551.596047 52.226481 
L 557.669417 48.95349 
L 563.742787 51.034151 
L 569.816157 60.946358 
L 575.889527 61.087774 
L 581.962897 57.483877 
L 588.036267 57.457401 
L 594.109637 49.791557 
L 600.183007 49.315762 
L 606.256377 49.791643 
L 612.329747 54.272002 
L 618.403118 55.415219 
L 624.476488 57.178996 
L 630.549858 50.600323 
L 636.623228 53.586377 
L 642.696598 50.951133 
L 648.769968 55.050763 
L 654.843338 54.059098 
L 660.916708 53.36725 
L 666.990078 57.859083 
L 673.063448 58.01938 
L 679.136818 54.690792 
" clip-path="url(#pe52a34a97b)" style="fill: none; stroke: #1f77b4; stroke-width: 1.5; stroke-linecap: square"/>
   </g>
   <g id="line2d_26">
    <path d="M 77.873182 21.492727 
L 83.946552 23.441112 
L 90.019922 28.439378 
L 96.093292 38.085856 
L 102.166662 59.147272 
L 108.240032 93.475637 
L 114.313402 126.602269 
L 120.386772 157.151245 
L 126.460142 164.067447 
L 132.533512 152.282718 
L 138.606882 145.097656 
L 144.680253 132.704146 
L 150.753623 124.249652 
L 156.826993 118.274346 
L 162.900363 108.856355 
L 168.973733 101.86667 
L 175.047103 97.198408 
L 181.120473 91.93309 
L 187.193843 86.002231 
L 193.267213 84.003195 
L 199.340583 81.705383 
L 205.413953 76.823967 
L 211.487323 75.318984 
L 217.560693 72.126874 
L 223.634063 69.5585 
L 229.707433 67.906093 
L 235.780803 65.706497 
L 241.854174 64.720633 
L 247.927544 60.739946 
L 254.000914 60.263331 
L 260.074284 60.579439 
L 266.147654 59.636443 
L 272.221024 56.717045 
L 278.294394 56.016847 
L 284.367764 55.02028 
L 290.441134 54.614152 
L 296.514504 52.10054 
L 302.587874 53.601263 
L 308.661244 51.119245 
L 314.734614 52.07354 
L 320.807984 51.621462 
L 326.881354 50.913503 
L 332.954725 49.534135 
L 339.028095 48.393286 
L 345.101465 48.536192 
L 351.174835 47.833423 
L 357.248205 49.392421 
L 363.321575 48.784205 
L 369.394945 48.090187 
L 375.468315 50.269737 
L 381.541685 49.526788 
L 387.615055 51.704639 
L 393.688425 49.390441 
L 399.761795 48.714978 
L 405.835165 48.633069 
L 411.908535 49.240835 
L 417.981905 50.144463 
L 424.055275 51.027504 
L 430.128646 49.623455 
L 436.202016 47.498684 
L 442.275386 48.828856 
L 448.348756 50.106434 
L 454.422126 51.471343 
L 460.495496 51.314498 
L 466.568866 50.908009 
L 472.642236 50.058487 
L 478.715606 48.045646 
L 484.788976 52.850969 
L 490.862346 52.999694 
L 496.935716 50.809096 
L 503.009086 53.153166 
L 509.082456 55.063677 
L 515.155826 53.775827 
L 521.229197 55.038021 
L 527.302567 52.532163 
L 533.375937 49.958128 
L 539.449307 53.521732 
L 545.522677 52.752589 
L 551.596047 54.37449 
L 557.669417 55.300762 
L 563.742787 54.362489 
L 569.816157 55.204159 
L 575.889527 51.941124 
L 581.962897 50.574313 
L 588.036267 54.707462 
L 594.109637 52.964098 
L 600.183007 56.88436 
L 606.256377 58.422811 
L 612.329747 58.758497 
L 618.403118 58.041103 
L 624.476488 57.615763 
L 630.549858 54.466349 
L 636.623228 51.822535 
L 642.696598 52.803076 
L 648.769968 54.637658 
L 654.843338 51.877221 
L 660.916708 52.210827 
L 666.990078 52.750252 
L 673.063448 52.387032 
L 679.136818 51.330065 
" clip-path="url(#pe52a34a97b)" style="fill: none; stroke: #ff7f0e; stroke-width: 1.5; stroke-linecap: square"/>
   </g>
   <g id="line2d_27">
    <path d="M 83.946552 234.020366 
L 90.019922 232.989624 
L 96.093292 232.148024 
L 102.166662 231.401948 
L 108.240032 230.966217 
L 114.313402 230.29554 
L 120.386772 231.127352 
L 126.460142 231.260065 
L 132.533512 231.270395 
L 138.606882 230.997392 
L 144.680253 231.160624 
L 150.753623 230.916216 
L 156.826993 231.150495 
L 162.900363 230.868981 
L 168.973733 230.784143 
L 175.047103 230.958354 
L 181.120473 230.627135 
L 187.193843 230.304306 
L 193.267213 230.664551 
L 199.340583 229.848224 
L 205.413953 229.912021 
L 211.487323 229.796566 
L 217.560693 229.507395 
L 223.634063 229.282199 
L 229.707433 228.706496 
L 235.780803 228.347819 
L 241.854174 228.342936 
L 247.927544 227.496214 
L 254.000914 229.121686 
L 260.074284 227.812493 
L 266.147654 227.252009 
L 272.221024 227.670148 
L 278.294394 226.960205 
L 284.367764 226.678566 
L 290.441134 226.805112 
L 296.514504 226.315666 
L 302.587874 226.008192 
L 308.661244 226.129548 
L 314.734614 226.963961 
L 320.807984 225.128667 
L 326.881354 225.612381 
L 332.954725 223.444087 
L 339.028095 225.56933 
L 345.101465 224.556005 
L 351.174835 223.518701 
L 357.248205 224.610985 
L 363.321575 224.256575 
L 369.394945 224.239128 
L 375.468315 224.554634 
L 381.541685 223.789068 
L 387.615055 223.011589 
L 393.688425 222.539413 
L 399.761795 222.81983 
L 405.835165 224.379189 
L 411.908535 220.805559 
L 417.981905 224.097018 
L 424.055275 220.976875 
L 430.128646 222.496747 
L 436.202016 220.902336 
L 442.275386 222.199995 
L 448.348756 220.27603 
L 454.422126 220.668543 
L 460.495496 218.822626 
L 466.568866 221.348154 
L 472.642236 219.220231 
L 478.715606 221.462491 
L 484.788976 219.795821 
L 490.862346 218.296636 
L 496.935716 220.55344 
L 503.009086 219.668643 
L 509.082456 221.133967 
L 515.155826 218.948431 
L 521.229197 218.172822 
L 527.302567 222.383387 
L 533.375937 220.532504 
L 539.449307 221.216846 
L 545.522677 217.061548 
L 551.596047 215.938858 
L 557.669417 219.448091 
L 563.742787 218.361822 
L 569.816157 214.941386 
L 575.889527 219.610609 
L 581.962897 216.650375 
L 588.036267 219.737618 
L 594.109637 216.239394 
L 600.183007 217.129059 
L 606.256377 217.827438 
L 612.329747 219.251032 
L 618.403118 215.870736 
L 624.476488 216.544375 
L 630.549858 217.540325 
L 636.623228 214.361741 
L 642.696598 214.646471 
L 648.769968 221.341857 
L 654.843338 217.415679 
L 660.916708 214.702377 
L 666.990078 216.348833 
L 673.063448 212.621994 
L 679.136818 216.883694 
" clip-path="url(#pe52a34a97b)" style="fill: none; stroke: #2ca02c; stroke-width: 1.5; stroke-linecap: square"/>
   </g>
   <g id="line2d_28">
    <path d="M 83.946552 233.703381 
L 90.019922 234.791712 
L 96.093292 234.726846 
L 102.166662 234.521781 
L 108.240032 234.375941 
L 114.313402 234.211935 
L 120.386772 234.462169 
L 126.460142 234.65886 
L 132.533512 234.810299 
L 138.606882 234.874313 
L 144.680253 234.992545 
L 150.753623 235.047648 
L 156.826993 235.061332 
L 162.900363 235.113615 
L 168.973733 235.201754 
L 175.047103 235.19721 
L 181.120473 235.246801 
L 187.193843 235.301751 
L 193.267213 235.312251 
L 199.340583 235.347273 
L 205.413953 235.240816 
L 211.487323 235.22082 
L 217.560693 235.232459 
L 223.634063 235.256941 
L 229.707433 235.29094 
L 235.780803 235.198184 
L 241.854174 235.160559 
L 247.927544 235.157308 
L 254.000914 235.157385 
L 260.074284 235.086627 
L 266.147654 235.103072 
L 272.221024 235.02918 
L 278.294394 235.054655 
L 284.367764 235.005396 
L 290.441134 235.050038 
L 296.514504 234.959377 
L 302.587874 234.930817 
L 308.661244 234.915753 
L 314.734614 234.972164 
L 320.807984 235.008078 
L 326.881354 235.03256 
L 332.954725 234.978408 
L 339.028095 234.997629 
L 345.101465 235.024951 
L 351.174835 235.039339 
L 357.248205 234.991274 
L 363.321575 235.077602 
L 369.394945 235.017287 
L 375.468315 235.019846 
L 381.541685 235.014395 
L 387.615055 234.997414 
L 393.688425 235.01052 
L 399.761795 235.055195 
L 405.835165 235.060125 
L 411.908535 235.047569 
L 417.981905 235.034452 
L 424.055275 235.01082 
L 430.128646 235.012563 
L 436.202016 235.036587 
L 442.275386 235.024228 
L 448.348756 235.070612 
L 454.422126 235.027657 
L 460.495496 234.987653 
L 466.568866 234.949031 
L 472.642236 234.993816 
L 478.715606 235.004536 
L 484.788976 234.929283 
L 490.862346 234.945748 
L 496.935716 234.995001 
L 503.009086 234.944798 
L 509.082456 234.95372 
L 515.155826 234.932401 
L 521.229197 234.881793 
L 527.302567 234.940002 
L 533.375937 234.863074 
L 539.449307 234.864683 
L 545.522677 234.937016 
L 551.596047 234.933198 
L 557.669417 234.999816 
L 563.742787 235.008402 
L 569.816157 235.100788 
L 575.889527 235.060595 
L 581.962897 234.99253 
L 588.036267 234.947049 
L 594.109637 234.977334 
L 600.183007 234.85828 
L 606.256377 234.838464 
L 612.329747 234.845544 
L 618.403118 234.887276 
L 624.476488 234.944193 
L 630.549858 234.986676 
L 636.623228 234.929319 
L 642.696598 234.942414 
L 648.769968 234.991665 
L 654.843338 234.978633 
L 660.916708 234.914754 
L 666.990078 234.891462 
L 673.063448 234.888492 
L 679.136818 234.925339 
" clip-path="url(#pe52a34a97b)" style="fill: none; stroke: #d62728; stroke-width: 1.5; stroke-linecap: square"/>
   </g>
   <g id="patch_3">
    <path d="M 47.81 246.04 
L 47.81 10.8 
" style="fill: none; stroke: #000000; stroke-width: 0.8; stroke-linejoin: miter; stroke-linecap: square"/>
   </g>
   <g id="patch_4">
    <path d="M 709.2 246.04 
L 709.2 10.8 
" style="fill: none; stroke: #000000; stroke-width: 0.8; stroke-linejoin: miter; stroke-linecap: square"/>
   </g>
   <g id="patch_5">
    <path d="M 47.81 246.04 
L 709.2 246.04 
" style="fill: none; stroke: #000000; stroke-width: 0.8; stroke-linejoin: miter; stroke-linecap: square"/>
   </g>
   <g id="patch_6">
    <path d="M 47.81 10.8 
L 709.2 10.8 
" style="fill: none; stroke: #000000; stroke-width: 0.8; stroke-linejoin: miter; stroke-linecap: square"/>
   </g>
   <g id="legend_1">
    <g id="patch_7">
     <path d="M 515.610938 159.8325 
L 702.2 159.8325 
Q 704.2 159.8325 704.2 157.8325 
L 704.2 99.0075 
Q 704.2 97.0075 702.2 97.0075 
L 515.610938 97.0075 
Q 513.610938 97.0075 513.610938 99.0075 
L 513.610938 157.8325 
Q 513.610938 159.8325 515.610938 159.8325 
z
" style="fill: #ffffff; opacity: 0.8; stroke: #cccccc; stroke-linejoin: miter"/>
    </g>
    <g id="line2d_29">
     <path d="M 517.610938 105.105938 
L 527.610938 105.105938 
L 537.610938 105.105938 
" style="fill: none; stroke: #1f77b4; stroke-width: 1.5; stroke-linecap: square"/>
    </g>
    <g id="text_15">
     <!-- actor_critic_99_8rays_Rcustom -->
     <g transform="translate(545.610938 108.605938) scale(0.1 -0.1)">
      <defs>
       <path id="DejaVuSans-63" d="M 3122 3366 
L 3122 2828 
Q 2878 2963 2633 3030 
Q 2388 3097 2138 3097 
Q 1578 3097 1268 2742 
Q 959 2388 959 1747 
Q 959 1106 1268 751 
Q 1578 397 2138 397 
Q 2388 397 2633 464 
Q 2878 531 3122 666 
L 3122 134 
Q 2881 22 2623 -34 
Q 2366 -91 2075 -91 
Q 1284 -91 818 406 
Q 353 903 353 1747 
Q 353 2603 823 3093 
Q 1294 3584 2113 3584 
Q 2378 3584 2631 3529 
Q 2884 3475 3122 3366 
z
" transform="scale(0.015625)"/>
       <path id="DejaVuSans-5f" d="M 3263 -1063 
L 3263 -1509 
L -63 -1509 
L -63 -1063 
L 3263 -1063 
z
" transform="scale(0.015625)"/>
       <path id="DejaVuSans-39" d="M 703 97 
L 703 672 
Q 941 559 1184 500 
Q 1428 441 1663 441 
Q 2288 441 2617 861 
Q 2947 1281 2994 2138 
Q 2813 1869 2534 1725 
Q 2256 1581 1919 1581 
Q 1219 1581 811 2004 
Q 403 2428 403 3163 
Q 403 3881 828 4315 
Q 1253 4750 1959 4750 
Q 2769 4750 3195 4129 
Q 3622 3509 3622 2328 
Q 3622 1225 3098 567 
Q 2575 -91 1691 -91 
Q 1453 -91 1209 -44 
Q 966 3 703 97 
z
M 1959 2075 
Q 2384 2075 2632 2365 
Q 2881 2656 2881 3163 
Q 2881 3666 2632 3958 
Q 2384 4250 1959 4250 
Q 1534 4250 1286 3958 
Q 1038 3666 1038 3163 
Q 1038 2656 1286 2365 
Q 1534 2075 1959 2075 
z
" transform="scale(0.015625)"/>
       <path id="DejaVuSans-79" d="M 2059 -325 
Q 1816 -950 1584 -1140 
Q 1353 -1331 966 -1331 
L 506 -1331 
L 506 -850 
L 844 -850 
Q 1081 -850 1212 -737 
Q 1344 -625 1503 -206 
L 1606 56 
L 191 3500 
L 800 3500 
L 1894 763 
L 2988 3500 
L 3597 3500 
L 2059 -325 
z
" transform="scale(0.015625)"/>
       <path id="DejaVuSans-52" d="M 2841 2188 
Q 3044 2119 3236 1894 
Q 3428 1669 3622 1275 
L 4263 0 
L 3584 0 
L 2988 1197 
Q 2756 1666 2539 1819 
Q 2322 1972 1947 1972 
L 1259 1972 
L 1259 0 
L 628 0 
L 628 4666 
L 2053 4666 
Q 2853 4666 3247 4331 
Q 3641 3997 3641 3322 
Q 3641 2881 3436 2590 
Q 3231 2300 2841 2188 
z
M 1259 4147 
L 1259 2491 
L 2053 2491 
Q 2509 2491 2742 2702 
Q 2975 2913 2975 3322 
Q 2975 3731 2742 3939 
Q 2509 4147 2053 4147 
L 1259 4147 
z
" transform="scale(0.015625)"/>
       <path id="DejaVuSans-75" d="M 544 1381 
L 544 3500 
L 1119 3500 
L 1119 1403 
Q 1119 906 1312 657 
Q 1506 409 1894 409 
Q 2359 409 2629 706 
Q 2900 1003 2900 1516 
L 2900 3500 
L 3475 3500 
L 3475 0 
L 2900 0 
L 2900 538 
Q 2691 219 2414 64 
Q 2138 -91 1772 -91 
Q 1169 -91 856 284 
Q 544 659 544 1381 
z
M 1991 3584 
L 1991 3584 
z
" transform="scale(0.015625)"/>
       <path id="DejaVuSans-6d" d="M 3328 2828 
Q 3544 3216 3844 3400 
Q 4144 3584 4550 3584 
Q 5097 3584 5394 3201 
Q 5691 2819 5691 2113 
L 5691 0 
L 5113 0 
L 5113 2094 
Q 5113 2597 4934 2840 
Q 4756 3084 4391 3084 
Q 3944 3084 3684 2787 
Q 3425 2491 3425 1978 
L 3425 0 
L 2847 0 
L 2847 2094 
Q 2847 2600 2669 2842 
Q 2491 3084 2119 3084 
Q 1678 3084 1418 2786 
Q 1159 2488 1159 1978 
L 1159 0 
L 581 0 
L 581 3500 
L 1159 3500 
L 1159 2956 
Q 1356 3278 1631 3431 
Q 1906 3584 2284 3584 
Q 2666 3584 2933 3390 
Q 3200 3197 3328 2828 
z
" transform="scale(0.015625)"/>
      </defs>
      <use xlink:href="#DejaVuSans-61"/>
      <use xlink:href="#DejaVuSans-63" transform="translate(61.279297 0)"/>
      <use xlink:href="#DejaVuSans-74" transform="translate(116.259766 0)"/>
      <use xlink:href="#DejaVuSans-6f" transform="translate(155.46875 0)"/>
      <use xlink:href="#DejaVuSans-72" transform="translate(216.650391 0)"/>
      <use xlink:href="#DejaVuSans-5f" transform="translate(257.763672 0)"/>
      <use xlink:href="#DejaVuSans-63" transform="translate(307.763672 0)"/>
      <use xlink:href="#DejaVuSans-72" transform="translate(362.744141 0)"/>
      <use xlink:href="#DejaVuSans-69" transform="translate(403.857422 0)"/>
      <use xlink:href="#DejaVuSans-74" transform="translate(431.640625 0)"/>
      <use xlink:href="#DejaVuSans-69" transform="translate(470.849609 0)"/>
      <use xlink:href="#DejaVuSans-63" transform="translate(498.632812 0)"/>
      <use xlink:href="#DejaVuSans-5f" transform="translate(553.613281 0)"/>
      <use xlink:href="#DejaVuSans-39" transform="translate(603.613281 0)"/>
      <use xlink:href="#DejaVuSans-39" transform="translate(667.236328 0)"/>
      <use xlink:href="#DejaVuSans-5f" transform="translate(730.859375 0)"/>
      <use xlink:href="#DejaVuSans-38" transform="translate(780.859375 0)"/>
      <use xlink:href="#DejaVuSans-72" transform="translate(844.482422 0)"/>
      <use xlink:href="#DejaVuSans-61" transform="translate(885.595703 0)"/>
      <use xlink:href="#DejaVuSans-79" transform="translate(946.875 0)"/>
      <use xlink:href="#DejaVuSans-73" transform="translate(1006.054688 0)"/>
      <use xlink:href="#DejaVuSans-5f" transform="translate(1058.154297 0)"/>
      <use xlink:href="#DejaVuSans-52" transform="translate(1108.154297 0)"/>
      <use xlink:href="#DejaVuSans-63" transform="translate(1177.636719 0)"/>
      <use xlink:href="#DejaVuSans-75" transform="translate(1232.617188 0)"/>
      <use xlink:href="#DejaVuSans-73" transform="translate(1295.996094 0)"/>
      <use xlink:href="#DejaVuSans-74" transform="translate(1348.095703 0)"/>
      <use xlink:href="#DejaVuSans-6f" transform="translate(1387.304688 0)"/>
      <use xlink:href="#DejaVuSans-6d" transform="translate(1448.486328 0)"/>
     </g>
    </g>
    <g id="line2d_30">
     <path d="M 517.610938 120.062187 
L 527.610938 120.062187 
L 537.610938 120.062187 
" style="fill: none; stroke: #ff7f0e; stroke-width: 1.5; stroke-linecap: square"/>
    </g>
    <g id="text_16">
     <!-- actor_critic_99_8rays_Rclassic -->
     <g transform="translate(545.610938 123.562187) scale(0.1 -0.1)">
      <defs>
       <path id="DejaVuSans-6c" d="M 603 4863 
L 1178 4863 
L 1178 0 
L 603 0 
L 603 4863 
z
" transform="scale(0.015625)"/>
      </defs>
      <use xlink:href="#DejaVuSans-61"/>
      <use xlink:href="#DejaVuSans-63" transform="translate(61.279297 0)"/>
      <use xlink:href="#DejaVuSans-74" transform="translate(116.259766 0)"/>
      <use xlink:href="#DejaVuSans-6f" transform="translate(155.46875 0)"/>
      <use xlink:href="#DejaVuSans-72" transform="translate(216.650391 0)"/>
      <use xlink:href="#DejaVuSans-5f" transform="translate(257.763672 0)"/>
      <use xlink:href="#DejaVuSans-63" transform="translate(307.763672 0)"/>
      <use xlink:href="#DejaVuSans-72" transform="translate(362.744141 0)"/>
      <use xlink:href="#DejaVuSans-69" transform="translate(403.857422 0)"/>
      <use xlink:href="#DejaVuSans-74" transform="translate(431.640625 0)"/>
      <use xlink:href="#DejaVuSans-69" transform="translate(470.849609 0)"/>
      <use xlink:href="#DejaVuSans-63" transform="translate(498.632812 0)"/>
      <use xlink:href="#DejaVuSans-5f" transform="translate(553.613281 0)"/>
      <use xlink:href="#DejaVuSans-39" transform="translate(603.613281 0)"/>
      <use xlink:href="#DejaVuSans-39" transform="translate(667.236328 0)"/>
      <use xlink:href="#DejaVuSans-5f" transform="translate(730.859375 0)"/>
      <use xlink:href="#DejaVuSans-38" transform="translate(780.859375 0)"/>
      <use xlink:href="#DejaVuSans-72" transform="translate(844.482422 0)"/>
      <use xlink:href="#DejaVuSans-61" transform="translate(885.595703 0)"/>
      <use xlink:href="#DejaVuSans-79" transform="translate(946.875 0)"/>
      <use xlink:href="#DejaVuSans-73" transform="translate(1006.054688 0)"/>
      <use xlink:href="#DejaVuSans-5f" transform="translate(1058.154297 0)"/>
      <use xlink:href="#DejaVuSans-52" transform="translate(1108.154297 0)"/>
      <use xlink:href="#DejaVuSans-63" transform="translate(1177.636719 0)"/>
      <use xlink:href="#DejaVuSans-6c" transform="translate(1232.617188 0)"/>
      <use xlink:href="#DejaVuSans-61" transform="translate(1260.400391 0)"/>
      <use xlink:href="#DejaVuSans-73" transform="translate(1321.679688 0)"/>
      <use xlink:href="#DejaVuSans-73" transform="translate(1373.779297 0)"/>
      <use xlink:href="#DejaVuSans-69" transform="translate(1425.878906 0)"/>
      <use xlink:href="#DejaVuSans-63" transform="translate(1453.662109 0)"/>
     </g>
    </g>
    <g id="line2d_31">
     <path d="M 517.610938 135.018438 
L 527.610938 135.018438 
L 537.610938 135.018438 
" style="fill: none; stroke: #2ca02c; stroke-width: 1.5; stroke-linecap: square"/>
    </g>
    <g id="text_17">
     <!-- dqn_99_8rays_Rclassic -->
     <g transform="translate(545.610938 138.518438) scale(0.1 -0.1)">
      <defs>
       <path id="DejaVuSans-64" d="M 2906 2969 
L 2906 4863 
L 3481 4863 
L 3481 0 
L 2906 0 
L 2906 525 
Q 2725 213 2448 61 
Q 2172 -91 1784 -91 
Q 1150 -91 751 415 
Q 353 922 353 1747 
Q 353 2572 751 3078 
Q 1150 3584 1784 3584 
Q 2172 3584 2448 3432 
Q 2725 3281 2906 2969 
z
M 947 1747 
Q 947 1113 1208 752 
Q 1469 391 1925 391 
Q 2381 391 2643 752 
Q 2906 1113 2906 1747 
Q 2906 2381 2643 2742 
Q 2381 3103 1925 3103 
Q 1469 3103 1208 2742 
Q 947 2381 947 1747 
z
" transform="scale(0.015625)"/>
       <path id="DejaVuSans-71" d="M 947 1747 
Q 947 1113 1208 752 
Q 1469 391 1925 391 
Q 2381 391 2643 752 
Q 2906 1113 2906 1747 
Q 2906 2381 2643 2742 
Q 2381 3103 1925 3103 
Q 1469 3103 1208 2742 
Q 947 2381 947 1747 
z
M 2906 525 
Q 2725 213 2448 61 
Q 2172 -91 1784 -91 
Q 1150 -91 751 415 
Q 353 922 353 1747 
Q 353 2572 751 3078 
Q 1150 3584 1784 3584 
Q 2172 3584 2448 3432 
Q 2725 3281 2906 2969 
L 2906 3500 
L 3481 3500 
L 3481 -1331 
L 2906 -1331 
L 2906 525 
z
" transform="scale(0.015625)"/>
      </defs>
      <use xlink:href="#DejaVuSans-64"/>
      <use xlink:href="#DejaVuSans-71" transform="translate(63.476562 0)"/>
      <use xlink:href="#DejaVuSans-6e" transform="translate(126.953125 0)"/>
      <use xlink:href="#DejaVuSans-5f" transform="translate(190.332031 0)"/>
      <use xlink:href="#DejaVuSans-39" transform="translate(240.332031 0)"/>
      <use xlink:href="#DejaVuSans-39" transform="translate(303.955078 0)"/>
      <use xlink:href="#DejaVuSans-5f" transform="translate(367.578125 0)"/>
      <use xlink:href="#DejaVuSans-38" transform="translate(417.578125 0)"/>
      <use xlink:href="#DejaVuSans-72" transform="translate(481.201172 0)"/>
      <use xlink:href="#DejaVuSans-61" transform="translate(522.314453 0)"/>
      <use xlink:href="#DejaVuSans-79" transform="translate(583.59375 0)"/>
      <use xlink:href="#DejaVuSans-73" transform="translate(642.773438 0)"/>
      <use xlink:href="#DejaVuSans-5f" transform="translate(694.873047 0)"/>
      <use xlink:href="#DejaVuSans-52" transform="translate(744.873047 0)"/>
      <use xlink:href="#DejaVuSans-63" transform="translate(814.355469 0)"/>
      <use xlink:href="#DejaVuSans-6c" transform="translate(869.335938 0)"/>
      <use xlink:href="#DejaVuSans-61" transform="translate(897.119141 0)"/>
      <use xlink:href="#DejaVuSans-73" transform="translate(958.398438 0)"/>
      <use xlink:href="#DejaVuSans-73" transform="translate(1010.498047 0)"/>
      <use xlink:href="#DejaVuSans-69" transform="translate(1062.597656 0)"/>
      <use xlink:href="#DejaVuSans-63" transform="translate(1090.380859 0)"/>
     </g>
    </g>
    <g id="line2d_32">
     <path d="M 517.610938 149.974688 
L 527.610938 149.974688 
L 537.610938 149.974688 
" style="fill: none; stroke: #d62728; stroke-width: 1.5; stroke-linecap: square"/>
    </g>
    <g id="text_18">
     <!-- dqn_99_8rays_Rcustom -->
     <g transform="translate(545.610938 153.474688) scale(0.1 -0.1)">
      <use xlink:href="#DejaVuSans-64"/>
      <use xlink:href="#DejaVuSans-71" transform="translate(63.476562 0)"/>
      <use xlink:href="#DejaVuSans-6e" transform="translate(126.953125 0)"/>
      <use xlink:href="#DejaVuSans-5f" transform="translate(190.332031 0)"/>
      <use xlink:href="#DejaVuSans-39" transform="translate(240.332031 0)"/>
      <use xlink:href="#DejaVuSans-39" transform="translate(303.955078 0)"/>
      <use xlink:href="#DejaVuSans-5f" transform="translate(367.578125 0)"/>
      <use xlink:href="#DejaVuSans-38" transform="translate(417.578125 0)"/>
      <use xlink:href="#DejaVuSans-72" transform="translate(481.201172 0)"/>
      <use xlink:href="#DejaVuSans-61" transform="translate(522.314453 0)"/>
      <use xlink:href="#DejaVuSans-79" transform="translate(583.59375 0)"/>
      <use xlink:href="#DejaVuSans-73" transform="translate(642.773438 0)"/>
      <use xlink:href="#DejaVuSans-5f" transform="translate(694.873047 0)"/>
      <use xlink:href="#DejaVuSans-52" transform="translate(744.873047 0)"/>
      <use xlink:href="#DejaVuSans-63" transform="translate(814.355469 0)"/>
      <use xlink:href="#DejaVuSans-75" transform="translate(869.335938 0)"/>
      <use xlink:href="#DejaVuSans-73" transform="translate(932.714844 0)"/>
      <use xlink:href="#DejaVuSans-74" transform="translate(984.814453 0)"/>
      <use xlink:href="#DejaVuSans-6f" transform="translate(1024.023438 0)"/>
      <use xlink:href="#DejaVuSans-6d" transform="translate(1085.205078 0)"/>
     </g>
    </g>
   </g>
  </g>
 </g>
 <defs>
  <clipPath id="pe52a34a97b">
   <rect x="47.81" y="10.8" width="661.39" height="235.24"/>
  </clipPath>
 </defs>
</svg>
